<svg width="38" height="24" viewBox="0 0 38 24" fill="none" xmlns="http://www.w3.org/2000/svg">
<path d="M17.7391 1.56519L1.56522 14.0869L11.4783 22.4348L36 15.1304L17.7391 1.56519Z" stroke="#2E2E2E" stroke-width="1.5"/>
<mask id="path-2-inside-1_19_628" fill="white">
<ellipse cx="17.2174" cy="1.56522" rx="1.56522" ry="1.56522"/>
</mask>
<ellipse cx="17.2174" cy="1.56522" rx="1.56522" ry="1.56522" fill="#2E2E2E"/>
<path d="M15.7826 1.56522C15.7826 0.772809 16.425 0.130435 17.2174 0.130435V6.13043C19.7387 6.13043 21.7826 4.08652 21.7826 1.56522H15.7826ZM17.2174 0.130435C18.0098 0.130435 18.6522 0.772809 18.6522 1.56522H12.6522C12.6522 4.08652 14.6961 6.13043 17.2174 6.13043V0.130435ZM18.6522 1.56522C18.6522 2.35763 18.0098 3 17.2174 3V-3C14.6961 -3 12.6522 -0.956083 12.6522 1.56522H18.6522ZM17.2174 3C16.425 3 15.7826 2.35763 15.7826 1.56522H21.7826C21.7826 -0.956083 19.7387 -3 17.2174 -3V3Z" fill="#2E2E2E" mask="url(#path-2-inside-1_19_628)"/>
<mask id="path-4-inside-2_19_628" fill="white">
<ellipse cx="36" cy="15.1305" rx="1.56522" ry="1.56522"/>
</mask>
<ellipse cx="36" cy="15.1305" rx="1.56522" ry="1.56522" fill="#2E2E2E"/>
<path d="M34.5652 15.1305C34.5652 14.3381 35.2076 13.6957 36 13.6957V19.6957C38.5213 19.6957 40.5652 17.6518 40.5652 15.1305H34.5652ZM36 13.6957C36.7924 13.6957 37.4348 14.3381 37.4348 15.1305H31.4348C31.4348 17.6518 33.4787 19.6957 36 19.6957V13.6957ZM37.4348 15.1305C37.4348 15.9229 36.7924 16.5653 36 16.5653V10.5653C33.4787 10.5653 31.4348 12.6092 31.4348 15.1305H37.4348ZM36 16.5653C35.2076 16.5653 34.5652 15.9229 34.5652 15.1305H40.5652C40.5652 12.6092 38.5213 10.5653 36 10.5653V16.5653Z" fill="#2E2E2E" mask="url(#path-4-inside-2_19_628)"/>
<mask id="path-6-inside-3_19_628" fill="white">
<ellipse cx="12" cy="22.4347" rx="1.56522" ry="1.56522"/>
</mask>
<ellipse cx="12" cy="22.4347" rx="1.56522" ry="1.56522" fill="#2E2E2E"/>
<path d="M10.5652 22.4347C10.5652 21.6423 11.2076 20.9999 12 20.9999V26.9999C14.5213 26.9999 16.5652 24.956 16.5652 22.4347H10.5652ZM12 20.9999C12.7924 20.9999 13.4348 21.6423 13.4348 22.4347H7.43481C7.43481 24.956 9.47873 26.9999 12 26.9999V20.9999ZM13.4348 22.4347C13.4348 23.2271 12.7924 23.8695 12 23.8695V17.8695C9.47873 17.8695 7.43481 19.9134 7.43481 22.4347H13.4348ZM12 23.8695C11.2076 23.8695 10.5652 23.2271 10.5652 22.4347H16.5652C16.5652 19.9134 14.5213 17.8695 12 17.8695V23.8695Z" fill="#2E2E2E" mask="url(#path-6-inside-3_19_628)"/>
<mask id="path-8-inside-4_19_628" fill="white">
<ellipse cx="1.56522" cy="14.0869" rx="1.56522" ry="1.56522"/>
</mask>
<ellipse cx="1.56522" cy="14.0869" rx="1.56522" ry="1.56522" fill="#2E2E2E"/>
<path d="M0.130435 14.0869C0.130435 13.2945 0.772809 12.6522 1.56522 12.6522V18.6522C4.08652 18.6522 6.13043 16.6082 6.13043 14.0869H0.130435ZM1.56522 12.6522C2.35763 12.6522 3 13.2945 3 14.0869H-3C-3 16.6082 -0.956082 18.6522 1.56522 18.6522V12.6522ZM3 14.0869C3 14.8794 2.35763 15.5217 1.56522 15.5217V9.52173C-0.956082 9.52173 -3 11.5656 -3 14.0869H3ZM1.56522 15.5217C0.772809 15.5217 0.130435 14.8794 0.130435 14.0869H6.13043C6.13043 11.5656 4.08652 9.52173 1.56522 9.52173V15.5217Z" fill="#2E2E2E" mask="url(#path-8-inside-4_19_628)"/>
</svg>
