<svg width="18" height="26" viewBox="0 0 18 26" fill="none" xmlns="http://www.w3.org/2000/svg">
<path d="M1.13333 24C1.13333 25.0309 1.96907 25.8667 3 25.8667C4.03093 25.8667 4.86667 25.0309 4.86667 24C4.86667 22.9691 4.03093 22.1333 3 22.1333C1.96907 22.1333 1.13333 22.9691 1.13333 24ZM13.1333 2C13.1333 3.03093 13.9691 3.86667 15 3.86667C16.0309 3.86667 16.8667 3.03093 16.8667 2C16.8667 0.969069 16.0309 0.133333 15 0.133333C13.9691 0.133333 13.1333 0.969069 13.1333 2ZM3.30726 24.1676L15.3073 2.1676L14.6927 1.8324L2.69274 23.8324L3.30726 24.1676Z" fill="#2E2E2E" fill-opacity="0.25"/>
</svg>
