<svg width="24" height="25" viewBox="0 0 24 25" fill="none" xmlns="http://www.w3.org/2000/svg">
<path d="M19.7321 3.60772L20.1651 3.85772L20.4151 3.42471L19.9821 3.17471L19.7321 3.60772ZM9.48206 21.3612L9.71981 21.8011L9.84431 21.7338L9.91507 21.6112L9.48206 21.3612ZM5.86677 23.3154L5.36714 23.2963C5.36028 23.4757 5.45013 23.645 5.60256 23.7399C5.75499 23.8348 5.94658 23.8406 6.10452 23.7553L5.86677 23.3154ZM6.01795 19.3612L5.58494 19.1112L5.52305 19.2184L5.51832 19.3421L6.01795 19.3612ZM16.268 1.60772L16.518 1.17471L16.0849 0.924711L15.8349 1.35772L16.268 1.60772ZM9.2443 20.9214L5.62902 22.8756L6.10452 23.7553L9.71981 21.8011L9.2443 20.9214ZM6.3664 23.3345L6.51759 19.3803L5.51832 19.3421L5.36714 23.2963L6.3664 23.3345ZM16.018 2.04074L19.4821 4.04074L19.9821 3.17471L16.518 1.17471L16.018 2.04074ZM19.299 3.35772L17.299 6.82183L18.1651 7.32183L20.1651 3.85772L19.299 3.35772ZM17.299 6.82183L9.04904 21.1112L9.91507 21.6112L18.1651 7.32183L17.299 6.82183ZM6.45097 19.6112L14.701 5.32183L13.8349 4.82183L5.58494 19.1112L6.45097 19.6112ZM14.701 5.32183L16.701 1.85772L15.8349 1.35772L13.8349 4.82183L14.701 5.32183ZM17.9821 6.63881L14.518 4.63881L14.018 5.50484L17.4821 7.50484L17.9821 6.63881Z" fill="#2E2E2E"/>
</svg>
