<svg width="18" height="28" viewBox="0 0 18 28" fill="none" xmlns="http://www.w3.org/2000/svg">
<path d="M0.866667 25C0.866667 26.1782 1.82179 27.1333 3 27.1333C4.17821 27.1333 5.13333 26.1782 5.13333 25C5.13333 23.8218 4.17821 22.8667 3 22.8667C1.82179 22.8667 0.866667 23.8218 0.866667 25ZM12.8667 3C12.8667 4.17821 13.8218 5.13333 15 5.13333C16.1782 5.13333 17.1333 4.17821 17.1333 3C17.1333 1.82179 16.1782 0.866667 15 0.866667C13.8218 0.866667 12.8667 1.82179 12.8667 3ZM3.35116 25.1915L15.3512 3.19154L14.6488 2.80846L2.64884 24.8085L3.35116 25.1915Z" fill="#2E2E2E"/>
<path d="M3 25L15 3" stroke="#2E2E2E" stroke-width="1.3"/>
</svg>
