<svg width="24" height="24" viewBox="0 0 24 24" fill="none" xmlns="http://www.w3.org/2000/svg">
<path d="M20.5 9.12C20.5 10.6055 19.9734 12.2527 19.1462 13.9136C18.3218 15.5688 17.2172 17.2013 16.1038 18.6475C14.9916 20.0922 13.8781 21.3413 13.0421 22.2295C12.6244 22.6734 12.2767 23.0264 12.034 23.2679C12.0257 23.2762 12.0174 23.2844 12.0093 23.2925C11.9981 23.2807 11.9866 23.2687 11.9748 23.2564C11.7316 23.0018 11.3833 22.6308 10.9651 22.167C10.128 21.2388 9.01303 19.9416 7.89928 18.464C6.78428 16.9848 5.67807 15.3347 4.85256 13.7002C4.02266 12.057 3.5 10.475 3.5 9.12C3.5 4.35304 7.3118 0.5 12 0.5C16.6882 0.5 20.5 4.35304 20.5 9.12Z" stroke="#2D2D2D"/>
<path d="M15.5 9C15.5 10.933 13.933 12.5 12 12.5C10.067 12.5 8.5 10.933 8.5 9C8.5 7.067 10.067 5.5 12 5.5C13.933 5.5 15.5 7.067 15.5 9Z" stroke="#2D2D2D"/>
</svg>
